<?xml version="1.0" encoding="UTF-8"?>
<svg id="_レイヤー_1" data-name="レイヤー 1" xmlns="http://www.w3.org/2000/svg" viewBox="0 0 580 510.68">
  <defs>
    <style>
      .cls-1 {
        fill: #1185fe;
        stroke-width: 0px;
      }
    </style>
  </defs>
  <path class="cls-1" d="M483.34,462.89c-122.39,125.59-175.91-31.51-189.63-71.76-2.52-7.38-3.7-10.84-3.71-7.9-.02-2.94-1.2.52-3.71,7.9-13.71,40.25-67.23,197.36-189.63,71.76-64.44-66.13-34.61-132.26,82.7-152.22-67.11,11.42-142.55-7.45-163.25-81.43C10.15,207.96,0,76.88,0,59.17,0-29.52,77.74-1.65,125.72,34.37c66.5,49.92,138.02,151.14,164.28,205.46,26.26-54.31,97.78-155.54,164.28-205.46,47.98-36.02,125.72-63.89,125.72,24.8,0,17.71-10.16,148.79-16.11,170.07-20.7,73.98-96.15,92.85-163.25,81.43,117.3,19.97,147.14,86.09,82.7,152.22Z"/>
</svg>