<?xml version="1.0" encoding="UTF-8"?>
<svg id="_レイヤー_1" data-name="レイヤー 1" xmlns="http://www.w3.org/2000/svg" viewBox="0 0 64 64">
  <defs>
    <style>
      .cls-1 {
        fill: #333;
        stroke-width: 0px;
      }
    </style>
  </defs>
  <path class="cls-1" d="M45.38,0h-26.76C8.63,0,.54,8.1.54,18.09v27.83c0,9.99,8.1,18.09,18.09,18.09h26.76c9.99,0,18.09-8.1,18.09-18.09v-27.83c0-9.99-8.1-18.09-18.09-18.09ZM6.96,18.09c0-6.43,5.23-11.67,11.67-11.67h26.76c6.43,0,11.67,5.23,11.67,11.67v27.83c0,6.43-5.23,11.67-11.67,11.67h-26.76c-6.43,0-11.67-5.23-11.67-11.67v-27.83Z"/>
  <path class="cls-1" d="M32,48.48c9.09,0,16.48-7.39,16.48-16.48s-7.39-16.48-16.48-16.48-16.48,7.39-16.48,16.48,7.39,16.48,16.48,16.48ZM32,20.66c6.26,0,11.34,5.09,11.34,11.34s-5.09,11.34-11.34,11.34-11.34-5.09-11.34-11.34,5.09-11.34,11.34-11.34Z"/>
  <path class="cls-1" d="M48.96,18.73c2.04,0,3.69-1.65,3.69-3.69s-1.65-3.69-3.69-3.69-3.69,1.65-3.69,3.69,1.65,3.69,3.69,3.69Z"/>
</svg>