<?xml version="1.0" encoding="UTF-8"?>
<svg id="_レイヤー_1" data-name="レイヤー 1" xmlns="http://www.w3.org/2000/svg" viewBox="0 0 64 64">
  <defs>
    <style>
      .cls-1 {
        fill: #333;
        stroke-width: 0px;
      }
    </style>
  </defs>
  <path class="cls-1" d="M62.67,16.6c-.74-2.76-2.9-4.92-5.66-5.66-4.99-1.34-25.01-1.34-25.01-1.34,0,0-20.01,0-25,1.34-2.76.74-4.92,2.9-5.66,5.66C0,21.58,0,32,0,32,0,32,0,42.42,1.34,47.4c.74,2.76,2.9,4.92,5.66,5.66,4.99,1.34,25,1.34,25,1.34,0,0,20.01,0,25-1.34,2.76-.74,4.92-2.9,5.66-5.66,1.34-4.99,1.34-15.4,1.34-15.4,0,0,0-10.42-1.34-15.4h0ZM25.6,41.6v-19.2l16.63,9.6-16.63,9.6Z"/>
</svg>