<?xml version="1.0" encoding="utf-8"?>
<!-- Generator: Adobe Illustrator 28.1.0, SVG Export Plug-In . SVG Version: 6.00 Build 0)  -->
<svg version="1.1" id="_x31_0" xmlns="http://www.w3.org/2000/svg" xmlns:xlink="http://www.w3.org/1999/xlink" x="0px" y="0px"
	 viewBox="0 0 512 512" style="enable-background:new 0 0 512 512;" xml:space="preserve">
<style type="text/css">
	.st0{fill:none;}
	.st1{fill:#4B4B4B;}
	.st2{fill:#FFFFFF;}
</style>
<g>
	<path class="st0" d="M424.8,144.2h-25.3c-27.1,0-49.1-22-49.1-49.1V46.9c-7.8-1.9-15.9-2.9-24.3-3H111.2c-19,0-34.4,15.4-34.4,34.4
		v211.6h54.5v-21.8h31.6v-12.6v-12.9h-31.6V200h31.6v-12.7v-12.8h-31.6v-42.6h31.6v-12.7v-12.8h-31.6V63.8h31.6V51.1h8.1v21.3h-31.7
		v25.4H171v21.4v21.3h-31.7v25.4H171v21.4v21.3h-31.7V234H171v21.5v21.2h-31.7v13.2h295.9V154.3c0-3.3-0.1-6.7-0.5-10L424.8,144.2z"
		/>
	<polygon class="st1" points="171,273.7 171,252.5 171,231 139.3,231 139.3,205.6 171,205.6 171,184.3 171,162.9 139.3,162.9 
		139.3,137.5 171,137.5 171,116.2 171,94.8 139.3,94.8 139.3,69.4 171,69.4 171,48.1 162.9,48.1 162.9,60.8 131.3,60.8 131.3,103.4 
		162.9,103.4 162.9,116.2 162.9,128.9 131.3,128.9 131.3,171.5 162.9,171.5 162.9,184.3 162.9,197 131.3,197 131.3,239.6 
		162.9,239.6 162.9,252.5 162.9,265.1 131.3,265.1 131.3,286.9 139.3,286.9 139.3,273.7 	"/>
	<path class="st1" d="M478.7,144.3C474,72.5,420.1,13.8,350.4,2.2c-7.9-1.4-16-2.1-24.3-2.2c-0.4-0.1-1-0.1-1.4-0.1H111.2
		C68,0,32.9,35.1,32.9,78.3v355.3c0,43.2,35.1,78.4,78.3,78.4h289.5c43.2,0,78.3-35.2,78.3-78.4V154.3
		C479.1,151,479,147.6,478.7,144.3z M435.2,289.9H139.3h-8H76.8V78.3c0-19,15.4-34.4,34.4-34.4h214.9c8.4,0.1,16.5,1.1,24.3,3v48.2
		c0,27.1,22,49.1,49.1,49.1h25.3l9.9,0.1c0.4,3.3,0.5,6.7,0.5,10V289.9z"/>
</g>
<g>
	<path class="st2" d="M181.1,337.4h64.7c4,0,7.2,0.9,9.6,2.8c2.9,2.2,4.3,5.2,4.3,9.1c0,2.2-0.6,4.9-1.9,8.2
		c-11.3,29.6-22.5,62-33.6,97.2c-2.1,6.7-5.7,10.1-10.8,10.1c-2.2,0-4.3-0.5-6.3-1.5c-3.2-1.6-4.8-4.1-4.8-7.5
		c0-1.7,0.8-4.9,2.3-9.4c15.7-45.7,25.6-73.9,29.7-84.7c0.6-1.4,0.8-2.4,0.8-3c0-1.1-1-1.6-3.1-1.6h-42.9c-2.1,0-3.1,1-3.1,3.1v18.2
		c0,2.1-0.7,3.9-2.1,5.4c-2,2.2-4.8,3.3-8.2,3.3c-4.1,0-7.2-1.5-9.1-4.5c-0.7-1.2-1.1-2.6-1.1-4.2v-25.1
		C165.5,342.7,170.7,337.4,181.1,337.4z"/>
	<path class="st2" d="M323,392.4h-36.4c-1.9,0-3.5-0.6-4.8-1.9c-1.7-1.8-2.6-4.2-2.6-7.3c0-3.7,1.2-6.3,3.7-8c1.1-0.7,2.3-1,3.7-1
		h55.5c3,0,5.4,0.8,7.3,2.3c2.2,1.8,3.3,4.1,3.3,7c0,2.8-1.1,5.4-3.2,8L305,443.8h44.7c1.8,0,3.4,0.6,4.8,1.9
		c1.8,1.8,2.8,4.3,2.8,7.6c0,3.9-1.3,6.7-4,8.4c-1,0.6-2.2,0.9-3.5,0.9h-62.5c-3,0-5.4-0.8-7.4-2.4c-2.1-1.7-3.2-4.1-3.2-7.1
		c0-3.3,1.3-6.5,3.9-9.6L323,392.4z"/>
</g>
</svg>
