<?xml version="1.0" encoding="utf-8"?>
<!-- Generator: Adobe Illustrator 28.1.0, SVG Export Plug-In . SVG Version: 6.00 Build 0)  -->
<svg version="1.1" id="_x31_0" xmlns="http://www.w3.org/2000/svg" xmlns:xlink="http://www.w3.org/1999/xlink" x="0px" y="0px"
	 viewBox="0 0 512 512" style="enable-background:new 0 0 512 512;" xml:space="preserve">
<style type="text/css">
	.st0{fill:none;}
	.st1{fill:#4B4B4B;}
	.st2{fill:#FFFFFF;}
</style>
<g>
	<path class="st0" d="M424.8,144.2h-25.3c-27.1,0-49.1-22-49.1-49.1V46.9c-7.8-1.9-15.9-2.9-24.3-3H111.2c-19,0-34.4,15.4-34.4,34.4
		v211.6h54.5v-21.8h31.6v-12.6v-12.9h-31.6V200h31.6v-12.7v-12.8h-31.6v-42.6h31.6v-12.7v-12.8h-31.6V63.8h31.6V51.1h8.1v21.3h-31.7
		v25.4H171v21.4v21.3h-31.7v25.4H171v21.4v21.3h-31.7V234H171v21.5v21.2h-31.7v13.2h295.9V154.3c0-3.3-0.1-6.7-0.5-10L424.8,144.2z"
		/>
	<polygon class="st1" points="171,273.7 171,252.5 171,231 139.3,231 139.3,205.6 171,205.6 171,184.3 171,162.9 139.3,162.9 
		139.3,137.5 171,137.5 171,116.2 171,94.8 139.3,94.8 139.3,69.4 171,69.4 171,48.1 162.9,48.1 162.9,60.8 131.3,60.8 131.3,103.4 
		162.9,103.4 162.9,116.2 162.9,128.9 131.3,128.9 131.3,171.5 162.9,171.5 162.9,184.3 162.9,197 131.3,197 131.3,239.6 
		162.9,239.6 162.9,252.5 162.9,265.1 131.3,265.1 131.3,286.9 139.3,286.9 139.3,273.7 	"/>
	<path class="st1" d="M478.7,144.3C474,72.5,420.1,13.8,350.4,2.2c-7.9-1.4-16-2.1-24.3-2.2c-0.4-0.1-1-0.1-1.4-0.1H111.2
		C68,0,32.9,35.1,32.9,78.3v355.3c0,43.2,35.1,78.4,78.3,78.4h289.5c43.2,0,78.3-35.2,78.3-78.4V154.3
		C479.1,151,479,147.6,478.7,144.3z M435.2,289.9H139.3h-8H76.8V78.3c0-19,15.4-34.4,34.4-34.4h214.9c8.4,0.1,16.5,1.1,24.3,3v48.2
		c0,27.1,22,49.1,49.1,49.1h25.3l9.9,0.1c0.4,3.3,0.5,6.7,0.5,10V289.9z"/>
</g>
<g>
	<path class="st2" d="M127.4,392.2c19.3,3.2,29,12.9,29,29c0,11.9-5.7,20.9-17.2,26.8c-7.7,4-17.5,6-29.3,6H76.5
		c-10.9,0-16.4-5.5-16.4-16.4v-85.2c0-10.9,5.5-16.3,16.4-16.3h29.7c11.8,0,21.3,1.7,28.5,5.2c11,5.2,16.5,13.4,16.5,24.5
		C151.2,380.1,143.3,388.9,127.4,392.2z M81.9,383.8h23.7c5.6,0,10.4-1,14.4-3.1c5.7-2.9,8.6-7.2,8.6-12.9c0-5.7-2.8-9.9-8.3-12.4
		c-3.7-1.7-8.4-2.5-14.2-2.5H85.3c-2.3,0-3.4,1.1-3.4,3.2V383.8z M81.9,401.1v30.6c0,2.7,1.4,4,4.2,4h21.5c7.5,0,13.2-1,17.2-3
		c5.1-2.6,7.7-7.2,7.7-13.7c0-6.9-3.3-11.9-10-14.9c-4.3-2-9.8-3-16.5-3H81.9z"/>
	<path class="st2" d="M236.3,355.4H182c-2.3,0-4.2-0.9-5.5-2.7c-1.5-2-2.3-4.4-2.3-7.3c0-4,1.4-6.9,4.1-8.4c1.1-0.6,2.3-0.9,3.7-0.9
		h72c4,0,7.2,1.2,9.5,3.7c1.6,1.7,2.4,3.8,2.4,6.2c0,3.5-1.4,7-4.3,10.6l-62.2,77.9h64.5c2.3,0,4.1,0.8,5.6,2.5
		c1.6,1.9,2.4,4.3,2.4,7.3c0,4-1.4,7-4.2,8.8c-1.1,0.7-2.4,1-3.9,1h-81.1c-4.2,0-7.3-1.2-9.5-3.7c-1.7-1.9-2.5-4.3-2.5-7.1
		c0-3.8,1.5-7.6,4.5-11.4L236.3,355.4z"/>
	<path class="st2" d="M304.3,352.3h-11.8c-1.7,0-3.2-0.6-4.4-1.7c-1.7-1.6-2.5-3.7-2.5-6.5c0-3.3,1.1-5.6,3.4-7.1c1-0.7,2.2-1,3.5-1
		H338c1.8,0,3.3,0.6,4.6,1.7c1.6,1.5,2.4,3.7,2.4,6.5c0,3.2-1.1,5.6-3.4,7.1c-1,0.7-2.2,1-3.6,1h-11.8v85.3H338
		c1.8,0,3.3,0.6,4.6,1.7c1.6,1.5,2.4,3.7,2.4,6.5c0,3.2-1.1,5.6-3.4,7.1c-1,0.7-2.2,1-3.6,1h-45.5c-1.7,0-3.2-0.6-4.4-1.7
		c-1.7-1.5-2.5-3.7-2.5-6.5c0-3.3,1.1-5.6,3.4-7.1c1-0.7,2.2-1,3.5-1h11.8V352.3z"/>
	<path class="st2" d="M390.3,410.3v36.5c0,1.8-0.5,3.5-1.6,4.9c-2,2.7-5.2,4-9.5,4c-3.7,0-6.7-1.1-8.8-3.2c-1.5-1.5-2.3-3.4-2.3-5.8
		v-92.6c0-12.1,6-18.2,18.1-18.2h27c12.5,0,22.9,2.5,31.3,7.4c10.9,6.4,16.3,16,16.3,28.7c0,13.6-5,23.7-15.1,30.1
		c-8.3,5.4-19.4,8-33.2,8H390.3z M390.3,392.1h22.8c7.8,0,13.8-1.7,18.1-5c4.3-3.4,6.4-8.2,6.4-14.4c0-6.9-2.9-11.9-8.6-15.1
		c-3.9-2.2-8.9-3.2-15.1-3.2h-20c-2.4,0-3.5,1.2-3.5,3.5V392.1z"/>
</g>
</svg>
