<?xml version="1.0" encoding="utf-8"?>
<!-- Generator: Adobe Illustrator 28.1.0, SVG Export Plug-In . SVG Version: 6.00 Build 0)  -->
<svg version="1.1" id="_x31_0" xmlns="http://www.w3.org/2000/svg" xmlns:xlink="http://www.w3.org/1999/xlink" x="0px" y="0px"
	 viewBox="0 0 512 512" style="enable-background:new 0 0 512 512;" xml:space="preserve">
<style type="text/css">
	.st0{fill:none;}
	.st1{fill:#4B4B4B;}
	.st2{fill:#FFFFFF;}
</style>
<g>
	<path class="st0" d="M424.8,144.2h-25.3c-27.1,0-49.1-22-49.1-49.1V46.9c-7.8-1.9-15.9-2.9-24.3-3H111.2c-19,0-34.4,15.4-34.4,34.4
		v211.6h54.5v-21.8h31.6v-12.6v-12.9h-31.6V200h31.6v-12.7v-12.8h-31.6v-42.6h31.6v-12.7v-12.8h-31.6V63.8h31.6V51.1h8.1v21.3h-31.7
		v25.4H171v21.4v21.3h-31.7v25.4H171v21.4v21.3h-31.7V234H171v21.5v21.2h-31.7v13.2h295.9V154.3c0-3.3-0.1-6.7-0.5-10L424.8,144.2z"
		/>
	<polygon class="st1" points="171,273.7 171,252.5 171,231 139.3,231 139.3,205.6 171,205.6 171,184.3 171,162.9 139.3,162.9 
		139.3,137.5 171,137.5 171,116.2 171,94.8 139.3,94.8 139.3,69.4 171,69.4 171,48.1 162.9,48.1 162.9,60.8 131.3,60.8 131.3,103.4 
		162.9,103.4 162.9,116.2 162.9,128.9 131.3,128.9 131.3,171.5 162.9,171.5 162.9,184.3 162.9,197 131.3,197 131.3,239.6 
		162.9,239.6 162.9,252.5 162.9,265.1 131.3,265.1 131.3,286.9 139.3,286.9 139.3,273.7 	"/>
	<path class="st1" d="M478.7,144.3C474,72.5,420.1,13.8,350.4,2.2c-7.9-1.4-16-2.1-24.3-2.2c-0.4-0.1-1-0.1-1.4-0.1H111.2
		C68,0,32.9,35.1,32.9,78.3v355.3c0,43.2,35.1,78.4,78.3,78.4h289.5c43.2,0,78.3-35.2,78.3-78.4V154.3
		C479.1,151,479,147.6,478.7,144.3z M435.2,289.9H139.3h-8H76.8V78.3c0-19,15.4-34.4,34.4-34.4h214.9c8.4,0.1,16.5,1.1,24.3,3v48.2
		c0,27.1,22,49.1,49.1,49.1h25.3l9.9,0.1c0.4,3.3,0.5,6.7,0.5,10V289.9z"/>
</g>
<g>
	<path class="st2" d="M109.6,375.7c15.2,2.5,22.8,10.1,22.8,22.8c0,9.4-4.5,16.5-13.6,21.1c-6.1,3.2-13.8,4.7-23.1,4.7H69.4
		c-8.6,0-12.9-4.3-12.9-12.9v-67.2c0-8.6,4.3-12.9,12.9-12.9h23.4c9.3,0,16.8,1.4,22.4,4.1c8.7,4.1,13,10.5,13,19.3
		C128.3,366.1,122.1,373.1,109.6,375.7z M73.7,369.1h18.7c4.4,0,8.2-0.8,11.3-2.4c4.5-2.3,6.8-5.7,6.8-10.1c0-4.5-2.2-7.8-6.5-9.8
		c-2.9-1.3-6.6-2-11.2-2H76.3c-1.8,0-2.7,0.8-2.7,2.5V369.1z M73.7,382.7v24.1c0,2.1,1.1,3.2,3.3,3.2h17c5.9,0,10.4-0.8,13.6-2.4
		c4-2.1,6-5.7,6-10.8c0-5.4-2.6-9.3-7.9-11.8c-3.4-1.6-7.7-2.4-13-2.4H73.7z"/>
	<path class="st2" d="M195.4,346.7h-42.8c-1.8,0-3.3-0.7-4.4-2.1c-1.2-1.6-1.8-3.5-1.8-5.8c0-3.2,1.1-5.4,3.2-6.7
		c0.9-0.5,1.8-0.7,2.9-0.7h56.8c3.2,0,5.7,1,7.5,2.9c1.2,1.4,1.9,3,1.9,4.9c0,2.8-1.1,5.6-3.4,8.3l-49,61.4h50.8
		c1.8,0,3.3,0.7,4.4,2c1.3,1.5,1.9,3.4,1.9,5.7c0,3.2-1.1,5.5-3.3,6.9c-0.9,0.5-1.9,0.8-3,0.8h-63.9c-3.3,0-5.8-1-7.5-2.9
		c-1.3-1.5-2-3.4-2-5.6c0-3,1.2-6,3.5-9L195.4,346.7z"/>
	<path class="st2" d="M249,344.3h-9.3c-1.4,0-2.5-0.5-3.5-1.4c-1.3-1.2-2-2.9-2-5.1c0-2.6,0.9-4.4,2.7-5.6c0.8-0.5,1.7-0.8,2.8-0.8
		h35.9c1.4,0,2.6,0.5,3.6,1.4c1.3,1.2,1.9,2.9,1.9,5.1c0,2.5-0.9,4.4-2.7,5.6c-0.8,0.5-1.7,0.8-2.9,0.8h-9.3v67.2h9.3
		c1.4,0,2.6,0.5,3.6,1.4c1.3,1.2,1.9,2.9,1.9,5.1c0,2.5-0.9,4.4-2.7,5.6c-0.8,0.5-1.7,0.8-2.9,0.8h-35.9c-1.4,0-2.5-0.5-3.5-1.4
		c-1.3-1.2-2-2.9-2-5.1c0-2.6,0.9-4.4,2.7-5.6c0.8-0.5,1.7-0.8,2.8-0.8h9.3V344.3z"/>
	<path class="st2" d="M316.8,390v28.8c0,1.5-0.4,2.7-1.2,3.9c-1.6,2.1-4.1,3.2-7.5,3.2c-2.9,0-5.2-0.8-6.9-2.5
		c-1.2-1.2-1.8-2.7-1.8-4.5v-73c0-9.6,4.8-14.4,14.3-14.4h21.3c9.8,0,18.1,1.9,24.7,5.8c8.6,5.1,12.9,12.6,12.9,22.6
		c0,10.7-4,18.7-11.9,23.8c-6.6,4.2-15.3,6.3-26.2,6.3H316.8z M316.8,375.6h18c6.1,0,10.9-1.3,14.3-4c3.4-2.7,5-6.4,5-11.3
		c0-5.4-2.3-9.4-6.8-11.9c-3.1-1.7-7-2.5-11.9-2.5h-15.8c-1.9,0-2.8,0.9-2.8,2.8V375.6z"/>
	<path class="st2" d="M407.3,408.9h42.9c1.7,0,3.2,0.6,4.3,1.7c1.5,1.5,2.2,3.5,2.2,6c0,3.2-1.1,5.5-3.3,6.8c-0.9,0.6-2,0.9-3.2,0.9
		h-53c-6.7,0-10.1-3-10.1-8.9c0-3.9,1.8-8.1,5.5-12.4c4.7-5.6,13.7-13.7,26.9-24.6c6.1-5,10.3-8.9,12.7-11.8c3-3.6,4.5-7.1,4.5-10.5
		c0-4.2-1.8-7.5-5.4-9.9c-2.8-1.8-6-2.7-9.8-2.7c-7.4,0-12.9,3.4-16.7,10.1c-1.7,3.1-4.1,4.6-7.3,4.6c-1.5,0-2.9-0.4-4.3-1.2
		c-2.4-1.4-3.7-3.5-3.7-6.2c0-2.9,1.2-5.8,3.5-8.9c2.4-3.2,5.6-5.9,9.6-8.1c5.8-3.2,12.1-4.7,19-4.7c7.6,0,14.2,1.8,20,5.4
		c8.3,5.2,12.5,12.5,12.5,21.8c0,6.5-2.3,12.4-6.8,17.5c-2.7,3.1-8.3,7.8-16.7,14.3C420.9,395.9,413.1,402.8,407.3,408.9z"/>
</g>
</svg>
