<?xml version="1.0" encoding="utf-8"?>
<!-- Generator: Adobe Illustrator 28.1.0, SVG Export Plug-In . SVG Version: 6.00 Build 0)  -->
<svg version="1.1" id="_x31_0" xmlns="http://www.w3.org/2000/svg" xmlns:xlink="http://www.w3.org/1999/xlink" x="0px" y="0px"
	 viewBox="0 0 512 512" style="enable-background:new 0 0 512 512;" xml:space="preserve">
<style type="text/css">
	.st0{fill:#4B4B4B;}
</style>
<g>
	<path class="st0" d="M478.7,144.3L478.7,144.3C474,72.5,420.1,13.8,350.4,2.2c-7.9-1.4-16-2.1-24.3-2.2c-0.4-0.1-1-0.1-1.4-0.1
		H111.2C68,0,32.9,35.1,32.9,78.3v355.3c0,43.2,35.1,78.4,78.3,78.4h289.5c43.2,0,78.3-35.2,78.3-78.4V154.3
		C479.1,151,479,147.6,478.7,144.3z M434.7,144.3L434.7,144.3c0.4,3.3,0.5,6.7,0.5,10v279.3c0,19-15.4,34.5-34.4,34.5H111.2
		c-19,0-34.4-15.4-34.4-34.5V78.3c0-19,15.4-34.4,34.4-34.4h214.9c8.4,0.1,16.5,1.1,24.3,3v48.2c0,27.1,22,49.1,49.1,49.1h25.3
		L434.7,144.3z"/>
	<g>
		<rect x="135" y="242.6" class="st0" width="246.7" height="13"/>
		<rect x="135" y="277" class="st0" width="246.7" height="13"/>
		<path class="st0" d="M170.8,209.2h22.9h75c6.6,0,10.2-8.5,5.9-14.1l-40.5-52.3c-3.1-4-8.7-4-11.8,0l-32.6,42
			c-3.3,4.2-9.3,3.9-12.3-0.6l-13.9-21.4c-3.1-4.8-9.6-4.8-12.7,0l-21.4,32.9c-3.7,5.7,0,13.5,6.3,13.5H170.8z"/>
		<circle class="st0" cx="172.5" cy="123.2" r="14.9"/>
		<rect x="305" y="152.2" class="st0" width="79" height="13"/>
		<rect x="305" y="188.7" class="st0" width="79" height="13"/>
	</g>
	<g>
		<path class="st0" d="M136.2,393.7v32.1c0,1.6-0.5,3-1.4,4.3c-1.8,2.4-4.5,3.5-8.4,3.5c-3.3,0-5.8-0.9-7.7-2.8c-1.3-1.3-2-3-2-5.1
			v-81.3c0-10.7,5.3-16,15.9-16h23.7c10.9,0,20.1,2.2,27.5,6.5c9.6,5.6,14.3,14,14.3,25.2c0,12-4.4,20.8-13.2,26.5
			c-7.3,4.7-17,7.1-29.2,7.1H136.2z M136.2,377.7h20c6.8,0,12.1-1.5,15.9-4.4c3.7-3,5.6-7.2,5.6-12.6c0-6.1-2.5-10.5-7.6-13.2
			c-3.4-1.9-7.9-2.8-13.3-2.8h-17.6c-2.1,0-3.1,1-3.1,3.1V377.7z"/>
		<path class="st0" d="M232.5,328.5H254c12.9,0,23.9,2.8,32.8,8.5c6.8,4.2,12.1,9.9,15.9,17.2c4,7.6,6,16.3,6,26
			c0,13.1-3.5,24.1-10.5,33.1c-9.7,12.6-24.6,18.8-44.8,18.8h-21c-10.9,0-16.4-5.4-16.4-16.1v-71.3
			C216.1,333.9,221.6,328.5,232.5,328.5z M235.6,348.4V412c0,2.2,1.1,3.3,3.4,3.3h11.8c9.5,0,16.9-1.6,22.3-4.8
			c9.9-6,14.9-16.1,14.9-30.3c0-8.1-1.8-15.1-5.4-20.9c-4.3-6.9-10.3-11.2-18.2-13c-3.7-0.8-8.1-1.2-13.2-1.2H239
			C236.7,345.1,235.6,346.2,235.6,348.4z"/>
		<path class="st0" d="M348.2,388.6v37.2c0,1.6-0.5,3-1.4,4.3c-1.8,2.4-4.6,3.5-8.4,3.5c-3.3,0-5.8-0.9-7.7-2.8c-1.3-1.3-2-3-2-5.1
			v-82.7c0-9.7,4.9-14.6,14.6-14.6h54.1c1.8,0,3.2,0.6,4.4,1.8c1.7,1.6,2.5,3.8,2.5,6.5c0,3.5-1.2,6-3.6,7.6c-1,0.6-2.1,0.9-3.3,0.9
			h-46.7c-1.7,0-2.6,0.9-2.6,2.6v24.7h42.7c1.7,0,3.1,0.6,4.2,1.7c1.7,1.6,2.5,3.8,2.5,6.5c0,3.3-1.2,5.7-3.5,7.1
			c-0.9,0.6-1.9,0.8-3.2,0.8H348.2z"/>
	</g>
</g>
</svg>
