<?xml version="1.0" encoding="utf-8"?>
<!-- Generator: Adobe Illustrator 28.1.0, SVG Export Plug-In . SVG Version: 6.00 Build 0)  -->
<svg version="1.1" id="_x31_0" xmlns="http://www.w3.org/2000/svg" xmlns:xlink="http://www.w3.org/1999/xlink" x="0px" y="0px"
	 viewBox="0 0 512 512" style="enable-background:new 0 0 512 512;" xml:space="preserve">
<style type="text/css">
	.st0{fill:none;}
	.st1{fill:#4B4B4B;}
	.st2{fill:#FFFFFF;}
</style>
<g>
	<path class="st0" d="M424.8,144.2h-25.3c-27.1,0-49.1-22-49.1-49.1V46.9c-7.8-1.9-15.9-2.9-24.3-3H111.2c-19,0-34.4,15.4-34.4,34.4
		v211.6h54.5v-21.8h31.6v-12.6v-12.9h-31.6V200h31.6v-12.7v-12.8h-31.6v-42.6h31.6v-12.7v-12.8h-31.6V63.8h31.6V51.1h8.1v21.3h-31.7
		v25.4H171v21.4v21.3h-31.7v25.4H171v21.4v21.3h-31.7V234H171v21.5v21.2h-31.7v13.2h295.9V154.3c0-3.3-0.1-6.7-0.5-10L424.8,144.2z"
		/>
	<polygon class="st1" points="171,273.7 171,252.5 171,231 139.3,231 139.3,205.6 171,205.6 171,184.3 171,162.9 139.3,162.9 
		139.3,137.5 171,137.5 171,116.2 171,94.8 139.3,94.8 139.3,69.4 171,69.4 171,48.1 162.9,48.1 162.9,60.8 131.3,60.8 131.3,103.4 
		162.9,103.4 162.9,116.2 162.9,128.9 131.3,128.9 131.3,171.5 162.9,171.5 162.9,184.3 162.9,197 131.3,197 131.3,239.6 
		162.9,239.6 162.9,252.5 162.9,265.1 131.3,265.1 131.3,286.9 139.3,286.9 139.3,273.7 	"/>
	<path class="st1" d="M478.7,144.3C474,72.5,420.1,13.8,350.4,2.2c-7.9-1.4-16-2.1-24.3-2.2c-0.4-0.1-1-0.1-1.4-0.1H111.2
		C68,0,32.9,35.1,32.9,78.3v355.3c0,43.2,35.1,78.4,78.3,78.4h289.5c43.2,0,78.3-35.2,78.3-78.4V154.3
		C479.1,151,479,147.6,478.7,144.3z M435.2,289.9H139.3h-8H76.8V78.3c0-19,15.4-34.4,34.4-34.4h214.9c8.4,0.1,16.5,1.1,24.3,3v48.2
		c0,27.1,22,49.1,49.1,49.1h25.3l9.9,0.1c0.4,3.3,0.5,6.7,0.5,10V289.9z"/>
</g>
<g>
	<path class="st2" d="M119.9,358.2h-36c-1.6,0-3-0.4-4.2-1.1c-2.9-1.8-4.4-4.9-4.4-9.2c0-3.6,1.1-6.5,3.3-8.5c1.4-1.3,3.2-2,5.3-2
		h95.8c1.8,0,3.4,0.5,4.7,1.4c2.6,2,3.9,4.9,3.9,9c0,3.9-1.1,6.7-3.4,8.6c-1.4,1.2-3.1,1.8-5.1,1.8h-36v96.7c0,2.8-1,5.1-3,6.9
		c-2.2,2-5.2,2.9-8.9,2.9c-5,0-8.5-1.6-10.5-4.9c-0.9-1.4-1.3-3-1.3-4.9V358.2z"/>
	<path class="st2" d="M228.5,430.1l-10.1,26.1c-2.2,5.6-6,8.5-11.5,8.5c-2.1,0-4.3-0.5-6.5-1.6c-4-2-6-4.8-6-8.6
		c0-1.8,0.4-3.7,1.3-5.8L236,348.2c3.6-8.9,9.3-13.4,17.3-13.4c8,0,13.8,4.5,17.4,13.4L311,448.6c0.8,2,1.2,4,1.2,6
		c0,3.6-1.9,6.4-5.7,8.3c-2.2,1.2-4.5,1.8-6.8,1.8c-5.4,0-9.1-2.8-11.3-8.5l-10.1-26.1H228.5z M253.4,358.5L235.5,410H271
		L253.4,358.5z"/>
	<path class="st2" d="M354.5,409.5V455c0,2.7-0.9,4.9-2.8,6.5c-2.3,2.1-5.3,3.1-9,3.1c-4.8,0-8.2-1.6-10.3-4.9
		c-0.9-1.3-1.3-2.9-1.3-4.8v-96.8c0-13.9,6.9-20.8,20.8-20.8h30.6c12.1,0,22,2,29.5,6c4.3,2.3,7.9,5.4,10.9,9.2
		c4.5,5.8,6.8,12.6,6.8,20.5c0,18.8-10.3,30-30.9,33.5l33.5,40.7c1.5,1.8,2.3,3.9,2.3,6.3c0,3.9-1.7,6.8-5.2,8.8
		c-2.6,1.5-5.3,2.2-8.1,2.2c-4.6,0-8.3-2-11.1-6l-35-49.1H354.5z M354.5,390.6h24.2c17.2,0,25.7-5.8,25.7-17.3
		c0-11.2-8.3-16.8-24.9-16.8h-21.6c-2.3,0-3.4,1.1-3.4,3.4V390.6z"/>
</g>
</svg>
