<?xml version="1.0" encoding="UTF-8"?>
<svg id="pc" xmlns="http://www.w3.org/2000/svg" viewBox="0 0 1280 720">
  <defs>
    <style>
      .cls-1 {
        fill: none;
      }
    </style>
  </defs>
  <polygon class="cls-1" points="295.95 410.22 275.98 457.24 276.3 458.22 294.47 448.73 295.95 410.22"/>
  <path class="cls-1" d="M498.51,436.22l-1.18,4.04,2.55-1.44c0-.1-.01-.2-.02-.29-.11-1-.14-2.06-1.35-2.31Z"/>
  <path class="cls-1" d="M383.52,286.16c6.07-.97,11.97-4.24,18.21-4.78l6.82-49.84-26.62,53.69c-.31,1.38.64,1.08,1.59.93Z"/>
  <path class="cls-1" d="M450.88,255.55c9.23-10.02,23.22-25.56,30.95-36.36,1.78-2.49,3.75-5.09-1.07-5.42-8.48-.59-18.98,10.51-23.18,17.16-5.49,8.68-8.78,18.64-11.04,28.62,1.59-1.09,3.03-2.58,4.33-3.99Z"/>
  <path d="M432.06,457.07c6.52-3.48,37.33-15.74,39.03-22,1.14-4.16-5.65-6.67-8.87-6.87-8.57-.55-16.36,3.73-24.34,6.02l6.98-17.34c8.65-1.97,17.32-4.89,25.45-8.54,7.03-3.16,23.41-9.86,9.03-16.61-8.97-4.2-33.69-1.69-42.07,3.54-3.2,2-8.41,6.78-8.69,10.69-.19,2.64,1.81,4.69,1.66,6.32-.14,1.51-1.79,3.89-2.37,5.58-7.17,20.93-16.25,50.77-20.06,72.75l16.07-9.04c2.36-8.28,5.13-16.53,8.19-24.51Z"/>
  <path d="M498.51,436.22c1.21.25,1.24,1.31,1.35,2.31.01.09.01.2.02.29l14.83-8.34c-1.27-13.32-2.73-28.18-5.19-39.62-.87-4.06-1.94-8.71-6.76-9.26-2.44-.28-4.76.14-6.27,2.27-2.53,3.57-4.89,23.27-6.19,29.14-2.75,12.36-6.18,24.54-9.74,36.69l16.77-9.44,1.18-4.04Z"/>
  <path d="M549.49,398.9c2.37-7.96,13.63-35.12,12.92-40.95-.74-6.05-6.41-5.68-10.27-2.39-10.21,8.72-19.3,49.85-22.67,63.99-.24,1.01-.47,2.02-.71,3.02l16.76-9.43c1.26-4.82,2.57-9.58,3.96-14.24Z"/>
  <path d="M146.73,357.23c3.89-1.04,9.38-8.14,11.85-11.48,14.66-19.88,20.86-43.04,31.25-64.74.38-.79.36-1.97,1.51-2.15-.09,11.46-1.7,22.88-1.35,34.36.36,11.87,1.37,31.14,12.06,38.6,6.52,4.55,12.22,4.04,14.31-4.27,6.05-24.14,10.45-48.69,17.3-72.69,6.03-21.14,14.42-41.9,20.5-62.83,1.57-5.41,6.13-18.63.08-22.44-6.38-4.01-10.19,7.67-11.89,11.96-12.93,32.65-20.12,69.87-33.19,102.8l-1.82,9.18c-1.56.1-1.18.22-1.33-.99-.6-4.72-.2-13.02-.03-18.04.47-14.1,3.3-28.48,2.02-42.63-.75-8.28-6.26-13.82-13.31-6.67-5.41,5.48-14.5,21.16-18.94,28.38-5.54,9-10.52,19.95-16.21,28.46-.46.69-.6,1.77-1.18.16-.65-1.79-.42-5.63-.35-7.71.76-22.85,3.73-45.8,4.69-68.65.31-7.44,1.92-19.1-9.36-16.7-6.18,1.31-6.61,8.84-7.28,14.05-2.54,19.9-2.32,41.2-4.01,61.32-1.53,18.17-5.12,37.32-5.99,55.35-.35,7.24-.11,20.24,10.68,17.35Z"/>
  <path d="M588.12,254.2c8.3,6.08,17.12-3.02,25.64-3.99-1.9,5.55-4.67,10.81-6.67,16.32-6.45,17.79-14.97,41.93-19.26,60.06-1.29,5.43-3.58,15.41-1.89,20.47,1.58,4.74,6.89,8.48,11.52,5.17,2.96-2.12,4.21-13.85,5.31-18.02,6.24-23.48,13.23-48.83,20.82-71.84,1.91-5.79,3.88-14.86,9.04-18.29,7.46-4.95,18.44-7.55,26.12-12.53l-18.16,52.49c-5.57,4.21-14.14,8.53-5.8,15.53l.22,1.48c-4.46,10.5-14.44,30.15-12.53,41.46,1.24,7.31,13.19,7.69,14.46-.79.36-2.41-.12-4.8.24-7.09,1.94-12.37,7.53-25.23,13.9-35.91l24.32-11.85c.76,0,.2,1.46.05,2.04-2.95,11.21-8.14,22.36-10.84,33.82-1.06,4.49-5.75,22.29,2.78,20.82,3.68-.63,5.76-8.15,6.83-11.2,9.63-27.38,20.5-64.3,25.99-92.67,1.03-5.34,4.72-17.63-.77-20.84-6.53-3.81-10.26,11.07-11.51,15.22-3.55,11.78-5.71,24.17-8.96,36.04l-21.21,5.43,21.69-61.3c-.29-2.31-.14-5.07-.81-7.26-1.13-3.71-5.51-6-8.23-2.45-2.95,3.85-4.38,13.78-7.33,18.34l-.65-6.19c-.15-.55-2.41-1.73-3.03-1.79-3.69-.33-12.93,3.79-17.47,4.48-2.65.4-5.29-.26-7.85.68l-.65-.47c-.15-2.92-1.04-5.22-4.49-4.6-4.13.74-2.49,6.06-4.28,7.28-8.96,2.96-18.21,5.42-27.03,8.79-4.23,1.62-15.86,5.39-16.48,10.22-.46,3.58,4.09,10.82,6.99,12.94Z"/>
  <path d="M439.83,240.27c-1.23,6.63-3.56,13.18-5.1,19.79-.66,2.83-.48,6.64-1.47,9.2-1.62,4.22-9.17,5.43-10.25,11.08-1.05,5.49,5.44,7.96,5.41,10.07-3.96,14.91-11.41,29.91-15.37,44.63-1.2,4.44-3.44,11.27-.1,15.12,3.28,3.79,7.11,1.84,9.52-1.7l18.74-54.24c7.39,21.18,11.56,43.83,22.99,63.32l2.34-1.68c2.79,2,4.94,11.29,8.68,10.09,3.45-1.1,2.17-5.81,1.78-8.55-1.52-10.6-5.18-24.17-7.99-34.67-4.48-16.78-10.8-32.92-15.81-49.52,2.7-3.6,6.58-6.79,9.68-10.33,9.01-10.31,32.98-38.99,36.49-50.83,1.75-5.9,2.4-12.07-4.01-15.03-12.05-5.57-36.73,8.31-47.03,15.3-3.65,2.48-15.31,11.02-16.75,14.57-1.9,4.68,3.7,12.17,8.25,13.37ZM457.58,230.92c4.2-6.66,14.7-17.75,23.18-17.16,4.82.33,2.85,2.93,1.07,5.42-7.73,10.8-21.73,26.34-30.95,36.36-1.3,1.41-2.75,2.9-4.33,3.99,2.26-9.98,5.55-19.93,11.04-28.62Z"/>
  <path d="M219.01,522.95c3.6-.3,4.41-4.54,5.32-7.4,4.36-13.61,7.16-28.87,11.19-42.81,1.2-4.14,5.01-19.38,7.17-21.49,3.86-3.76,15.57-7.26,13-15.07-1.57-4.76-9.64-1.92-13.03-1.63,5.05-14.99,11.89-29.66,14.66-45.28-1.36-5.39-8.01-5.69-11.66-2.4-3.09,2.79-6.59,14.12-8.13,18.53-3.65,10.44-6.37,21.23-9.48,31.85l-26.02,12.29c1.39-6.32,3.13-12.57,4.85-18.81,2.64-9.56,11.28-32.49,10.5-40.89-.54-5.82-7.63-7.72-12.06-4.67-4.75,3.27-7.53,14.64-9.1,20.23-9.36,33.23-18.77,71.48-25.33,105.33-.82,4.21-2.73,9.46.8,12.83,6.19,5.91,10.76-4.31,12.3-9.05,3.38-10.4,4.49-22.36,8.74-32.59l31.27-18.37-15.1,51.75c-.26,6.09,4.84,8.08,10.12,7.65Z"/>
  <path d="M232.3,322.86c-2.19,11.39-8.84,36.61,10.62,34.62,13.84-1.42,47.86-23.47,58.99-32.97,1.8-1.54,3.51-3.23,4.69-5.3-3.88-2.25-9.12-1.03-13.31,0-17.09,4.24-32.93,13.44-49.3,19.66,1.35-7.38,2.94-14.78,4.99-22,.98-3.44,3.6-13.48,5.65-15.68,2.17-2.33,12.58-5.37,16.24-7.08,8.93-4.16,19.14-8.93,27.76-13.56,5.14-2.76,15.82-8.52,5.11-13.14-7.87-3.4-21.04.04-29.1,2.46-4.88,1.46-10.07,4.31-14.45,5.54-.99.28-1.79.49-1.55-.88,2.75-7.86,4.38-16.11,7.5-23.84.93-2.3,2.6-6.95,4.27-8.4,1.33-1.16,13.39-6.45,15.89-7.44,7.99-3.16,16.58-5.49,24.86-7.8,4.09-1.14,17.8-3.14,19.93-5.72,3.92-4.76-8.94-10.43-12.48-11.46-15.4-4.49-40.63,1.14-52.94,11.66-8.01,6.85-12.64,24.69-15.85,34.81-6.65,20.94-13.36,44.95-17.5,66.49Z"/>
  <path d="M119.73,524.27c20.16,0,53.64-38.03,60.09-55.92,1.11-3.09,1.46-4.72-1.46-6.78-14.35,12.34-29.46,25.05-45.69,34.93-9.21,5.61-20.81,14.56-19.92-3.94,1.27-26.61,23.28-54.06,37.17-75.47,3.32-5.11,5.93-11.4,10.11-15.54-.12,7.95-4.99,31.16,3.86,35.16,9.08,4.1,12-15.19,13.16-21.13,2.1-10.72,5.93-34.21-7.69-39.02-13.68-4.83-25.29,11.6-32.24,21.07-18.36,25.04-44.98,76.51-37.24,107.79,2.37,9.58,9.03,18.86,19.84,18.86Z"/>
  <path d="M287.97,512.56c-.26,5.22-.41,12.41,3.75,16.23,1.88,1.72,7.13,3.63,9.23,1.42,2.93-3.08,1.97-18.91,3.66-23.67l3.45-51.89c7.71-4.13,16.98-15.86.56-11.11,1.25-10.95.36-22.01.63-33.03.17-6.74,2.63-19.31.66-25.27-2.49-7.52-12.97-7.34-18.8-4.22-2.88,1.54-4.43,7.24-5.65,10.35-8.72,22.21-16.29,46.37-26.91,67.74-3.5,7.04-3.19,6.27-8.88,11.11-7.48,6.35,1.23,8.54.88,10.85-4.16,10.01-9.61,21.31-12.21,31.81-1.85,7.45.21,10.71,8.31,9.65,8.21-11.68,11.87-26.57,19.03-38.96,9.48-3.32,17.35-9.66,26.28-14.03-.05,1.65.12,3.33,0,4.99-.93,12.44-3.35,25.56-3.98,38.02ZM276.3,458.22l-.32-.98,19.97-47.02-1.48,38.51-18.17,9.48Z"/>
  <path d="M348.84,349.46c7.43-3.91,13.11-24.36,17.98-32.01,6.49-10.21,20.28-14.95,31.07-19.24l-10.04,51.67c.53,3.9,1.01,10.09,6.3,9.48,3.38-.39,4.94-7.35,5.69-10.2,7.2-27.35,11.19-57.21,16.9-85.09,3.26-15.88,10.38-37.67,11.71-52.95.43-4.94-.46-8.61-5.9-9.32-7.73-1.01-7.46,5.49-10.01,6.77-1.08.54-3.62-1.11-5.98-.02-5.78,2.66-22.21,35.1-26.1,42.54-4.47,8.53-15.63,35.12-21.2,40.12-3.24,2.91-9.9,5.25-8.54,11.18.62,2.71,3.66,2.03,2.94,5.83-1.76,9.35-13.47,23.09-14.9,31.81-1.03,6.27,4.38,12.42,10.08,9.42ZM381.93,285.24l26.62-53.69-6.82,49.84c-6.24.54-12.14,3.82-18.21,4.78-.96.15-1.9.45-1.59-.93Z"/>
  <path d="M599.72,378.61c-7.55-5.98-12.53-2.15-17.91,3.96-4.19,4.76-8.43,10.62-12.51,17.2l32.98-18.55c-.74-.96-1.59-1.83-2.56-2.61Z"/>
  <path d="M712.55,292.38c10.87-6.69,23.87-12.69,34.03-20.28,2.1-1.57,11.19-8.46,9.48-11.23-2.07-1.82-5.32-1.49-7.95-1.24-9.72.89-18.84,5.62-28.39,7.25-1-1.03,4.46-15.92,5.48-18.17,2.02-4.46,2.34-5.63,7-7.66,9.84-4.3,30.14-8.29,37.15-15.49,2.35-2.42,1.91-3.45-.77-5.22-9.95-6.58-39.17-2.56-49.69,2.73-3.9,1.96-5.93,3.25-5.14,8.12.31,1.89,2.05,2.8,1.87,4.53-.22,2.08-4.63,10.15-5.74,12.99-8,20.48-19.41,60-21.74,84.23l16.39-9.22c2.3-10.54,4.39-21.16,8.03-31.33Z"/>
  <path d="M473.94,327.96c-.6,6.57,1.47,15.46,9.93,13.27,2.87-.74,13.06-7,16.42-8.9,6.82-3.86,13.81-8.03,20.43-12.23,2.8-1.78,22.02-14.38,22.45-15.68.19-.57-.11-1.51,0-2.21-5.34-.31-10.87,1.47-15.99,3-13.39,4-26.15,10.35-39.31,14.99,3.04-9.34,4.77-19.47,9.62-28.03,16.05-10.08,33.16-19.24,46.99-32.3-.69-.83-1.21-1.43-2.34-1.65-9.69-1.89-27.12,7.99-36.96,9.98,1.48-4.05,2.55-8.26,3.98-12.34,1.56-4.41,3.8-11.9,7.55-14.45,11.92-8.12,31.39-11.27,44.02-17.95,2.98-1.58,3.78-3.31,2.03-6.54-.23-.43-3.8-4.69-4.25-5.08-6.84-6.03-48.58,9.13-50.7,11.34-5.41,5.65-12.51,29.48-15.31,38.02-5.79,17.62-16.96,49.24-18.56,66.76Z"/>
  <path d="M324.84,517.51c11.23-.39,27.66-20.46,32.95-29.75,1.81-3.18,8.84-14.54,1.16-14.79-6.79-.22-22.69,13.71-29.01,17.25,5.68-25.22,14.78-49.46,22.16-74.16,2.25-7.52,8.63-24.95,6.84-31.87-1.05-4.07-4.77-5.34-8.65-4.61-4.98.93-7.78,11.79-9.2,16.12-9.72,29.56-22.67,71.17-26.36,101.63-1.06,8.76-2.42,20.61,10.11,20.17Z"/>
  <path d="M403.8,485.13c1.68-3.79,3.34-7.88,2.66-12.14-4.76-2.47-10.07,2.1-13.84,4.96-1.92,1.45-15.77,14.57-17.38,12.94,7.49-32.95,19.37-64.67,28.49-97.17,2.37-10.06-11.18-15.95-15.2-5.87-4.38,10.98-6.94,27.71-10.3,39.7-4.79,17.11-9.75,34.25-14.66,51.34-3.14,10.92-13.83,28.82.75,35.92.09.04.17.08.26.12l33.23-18.69c2.51-3.95,4.54-7.86,5.98-11.11Z"/>
  <path d="M710.55,396.38l-12.16,35.17,16.97-11.35c5.86-5.53,13.26-11.01,17.02-18.3,1.14-2.2,3.29-6.8,1.16-8.86-3.22-3.13-19.14.63-23,3.35Z"/>
  <path d="M422.22,491.54c16.69-10.33,34.88-17.91,53.28-24.68,1.68-5.73,3.38-11.45,5.06-17.18l-56.69,31.89c-.52,1.82-1.02,3.64-1.5,5.46-.18.7-1.69,4.55-.16,4.5Z"/>
  <path d="M1280-.03l-575.48,323.73c-.47,2.17-.95,4.34-1.46,6.5,1.42,1.27,18.43-7.14,21.34-8.31,7.04-2.82,19.79-8.43,26.97-9.01,2.34-.19,4.89-.5,6.31,1.66,0,2.84-36.01,26.58-41.09,29.54-10.31,6-29.59,15.29-28.85-5.53.06-1.76.2-3.65.39-5.63l-85.84,48.29c5.96,7.68,4.75,20.67,2.12,29.29-1.88,6.17-5.69,13.65-13.16,9.57.41-1.28-1.46-3.98-1.46-4.2v-13.67c-.67-.76-6.04,4.9-6.68,5.65-12.35,14.65-31.05,60.66-24.28,79,1.65,4.47,3.18,3.64,7.22,1.93,6.94-2.94,13.9-13.2,17.74-19.58-5.57.54-9.14,1.02-12.54-4.11-3.39-5.11-2.89-8.24,2.22-11.55,4.38-2.83,32.27-14.08,36.47-13.84,11.45.67-1.68,11.46-3.02,14.01-2.56,4.91-4.41,13.51-6.82,19.15-6.47,15.19-20.08,36.26-38.67,36.7-9.61.23-17.87-12.4-18.88-21.09-2.94-25.2,10.6-62.63,26.75-88.72l-23.77,13.37c-4.81,18.5-8.71,37.92-12.17,56.29-2.33,12.37-3.22,27.12-6.4,38.93-1.29,4.81-2.66,6.95-8.14,6.85-11.37-.22-12.34-16.88-14-25.64-2.41-12.77-4.21-26.04-4.97-39.03-.22-3.77.39-8.08.04-11.73l-2.55,1.44-20.47,69.98c-1.66,3.36-4.7,5.7-8.02,2.68-5.44-4.96,1.25-24.78,3.01-31.35-12.19,8.46-23.77,18.1-36.43,25.88-7.69,4.72-19.77,13.95-26.86,4.45-3.55-4.76-1.95-14.06-1.03-19.69.09-.52.18-1.05.27-1.58l-9.98,5.62c-7.78,12.25-20.12,24.83-33.23,18.69L0,720.03h1280V-.03h0ZM614.67,504.79c-15.94,6.4-7.78-15.61-5.91-23.91,5.55-24.63,12.87-48.95,20.32-73.04-.07-2.47-10.9-4.14-7.23-11.21,3.37-6.48,22.94-10.54,29.89-12.09,6.96-1.55,27.58-6.19,33.51-4.85.65.15,3.18,1.59,3.6,2.06.57.65,1,1.6.57,2.45-11.25,13.07-29.73,18.93-45.71,24.31l-7.28,21.71c.53.47,10.01-2.76,11.86-3.13,5.91-1.2,14.81-2.83,19.78,1.14,7.37,5.89-3.78,12.68-8.54,15.44-9.1,5.28-19.3,8.47-29.07,12.24-3.99,8.01-6.58,17.01-8.68,25.64,7.79-2.19,15.28-5.91,22.97-8.68,5.35-1.92,17.44-6.98,22.52-5.84,3.62.81,3.35,5.48,1.73,8.11-11.97,7.21-24.7,13.04-37.01,19.63-5.47,2.92-11.87,7.83-17.31,10.02ZM733.82,482.44c4.16,7.74,12.08,23.61,11.79,32.15-.1,2.97-3.55,5.17-5.6,2.32-14.83-21.82-28.8-44.35-47.28-63.36-3.62,9.99-7.27,20.04-11.54,29.78-2.71,6.17-7.07,16.71-10.65,22.01-5.38,7.96-10.1-.77-7.96-7.3l12.48-38.92c.57-2.67-4.72-4.2-4.58-5.79,1.5-3.65,5.08-5.82,6.62-9.42,2.63-6.14,4.37-14.93,6.46-21.54,2.05-6.49,4.38-12.9,6.72-19.29.02-2.1-7.65-4.08-5.36-10.69,4.03-11.62,26.61-15.46,37.33-17.32,10.73-1.86,25-6.02,30.61,6.32,6.59,14.49-6.55,31.64-16.09,41.88-7.97,8.55-17.98,15.29-28.37,20.61,8.98,12.43,18.15,25.03,25.43,38.56Z"/>
  <path d="M517.83,469.9c.03.81-.5,2.48.66,2.32,3.09-16.61,6.44-33.2,10.29-49.65l-14.06,7.91c.38,3.98.74,7.84,1.11,11.41.95,9.28,1.68,18.67,2.01,28Z"/>
</svg>