<?xml version="1.0" encoding="UTF-8"?>
<svg id="logo" xmlns="http://www.w3.org/2000/svg" viewBox="0 0 600 600">
  <g>
    <g>
      <path d="M404.97,472.06c-7.95,0-13.95,5.88-13.95,13.68s5.87,13.68,13.95,13.68,13.95-5.75,13.95-13.68-6-13.68-13.95-13.68Z"/>
      <polygon points="364.97 522.35 395.49 522.35 395.49 579.19 416.75 579.19 416.75 503.26 364.97 503.26 364.97 522.35"/>
    </g>
    <path d="M545.23,500.01c-18.66,0-37.56,13.65-37.56,39.73s18.89,39.46,37.56,39.46,37.56-13.55,37.56-39.46-18.89-39.73-37.56-39.73ZM545.23,519.37c9.74,0,16.03,7.99,16.03,20.37s-6.29,20.09-16.03,20.09-16.03-7.89-16.03-20.09,6.29-20.37,16.03-20.37Z"/>
    <path d="M492.24,549.15l-4.23,3.59c-5.61,4.77-11.2,7.08-17.11,7.08-12.37,0-20.37-7.89-20.37-20.09s8.1-20.37,20.64-20.37c5.14,0,9.7,1.93,14.8,6.27l3.99,3.39,11.49-14.86-3.19-3.11c-7.42-7.23-16.92-11.05-27.5-11.05-24.59,0-41.76,16.34-41.76,39.73s16.51,39.46,41.08,39.46c10.78,0,20.99-4,29.5-11.57l3.29-2.93-10.64-15.54ZM438.6,538.99c0-13.45,6.84-22.04,16.01-26.36-8.96,5.05-14.48,14.52-14.48,26.36,0,12.97,6.69,23.08,17.3,27.57-11.74-3.96-18.83-13.93-18.83-27.57Z"/>
    <g>
      <polygon points="285.22 480.2 285.22 579.19 306.61 579.19 306.63 480.2 285.22 480.2"/>
      <path d="M317.07,480.2h-5.44v63.72h5.44c23.77,0,37.96-12.16,37.96-32.54,0-14.22-6.59-31.18-37.96-31.18Z"/>
    </g>
  </g>
  <path d="M0,0v600h600V0H0ZM95,590H10V105h85s0,485,0,485ZM590,590H105V105h485s0,485,0,485ZM590,95H105s0-85,0-85h485v85Z"/>
</svg>