<?xml version="1.0" encoding="utf-8"?>
<!-- Generator: Adobe Illustrator 28.1.0, SVG Export Plug-In . SVG Version: 6.00 Build 0)  -->
<svg version="1.1" id="_x32_" xmlns="http://www.w3.org/2000/svg" xmlns:xlink="http://www.w3.org/1999/xlink" x="0px" y="0px"
	 viewBox="0 0 512 512" style="enable-background:new 0 0 512 512;" xml:space="preserve">
<style type="text/css">
	.st0{fill:#4B4B4B;}
</style>
<g>
	<polygon class="st0" points="40,472 40,296 40,136 40,96 0,96 0,512 416,512 416,472 376,472 	"/>
	<polygon class="st0" points="472,264 472,304 472,376 136,376 136,40 214.5,40 254.5,40 254.5,0 214.5,0 96,0 96,416 512,416 
		512,304 512,264 	"/>
	<g>
		<polygon class="st0" points="358.9,0 358.9,40 443.7,40 233.6,250 261.9,278.3 472,68.3 472,153.1 512,153.1 512,0 		"/>
	</g>
</g>
</svg>
