<?xml version="1.0" encoding="UTF-8"?>
<svg id="_読み上げ停止" data-name="読み上げ停止" xmlns="http://www.w3.org/2000/svg" viewBox="0 0 200 40">
  <defs>
    <style>
      .cls-1 {
        fill: #fff;
      }

      .cls-2 {
        fill: red;
      }
    </style>
  </defs>
  <g>
    <rect class="cls-1" x=".5" y=".53" width="199" height="39"/>
    <path d="M199,1.03v38H1V1.03h198M200,.03H0v40h200V.03h0Z"/>
  </g>
  <path d="M30.43,9.62c0-1.55,1.26-2.8,2.8-2.8s2.8,1.26,2.8,2.8v20.57c0,1.55-1.26,2.8-2.8,2.8s-2.8-1.26-2.8-2.8V9.62ZM28.56,10.97c-3.87,1.78-8.49,2.77-13.09,3.1v11.66c.68.04,1.36.09,2.03.16,3.84.38,7.55,1.25,11.05,2.92V10.97ZM13.6,25.64v-11.46c-1.27.05-2.62.08-3.75.1-2.06.03-3.72,1.7-3.72,3.76v3.74c0,2.07,1.68,3.73,3.73,3.76.31,0,.62,0,.93.01.94.02,1.88.05,2.82.09ZM16.2,27.66c.53.04,1.06.09,1.59.15l.47,3.16c.19,1.01-.47,1.99-1.49,2.19-.12.02-.23.03-.35.03h-1.02c-.74,0-1.42-.44-1.71-1.12l-2.46-4.64c1.06.03,2.11.07,3.16.12.61.03,1.22.07,1.81.11Z"/>
  <g>
    <path d="M80.88,17.29v-1.72h5.04v1.72h-5.04ZM88.01,22.34h-1.97v-3.63h8.67v3.63h-2.15v-1.78h-4.31v.8h1.66c.04,1.85-.16,3.14-.62,3.88-.16.29-.43.62-.8.98-.53.53-.96.88-1.29,1.05l-1.48-1.35v.37h-2.65v.68h-1.85v-4.86h4.49v3.45c.74-.29,1.31-.72,1.72-1.29.37-.49.55-1.13.55-1.91ZM81.49,15.02v-1.66h4.06v1.66h-4.06ZM81.49,19.38v-1.54h4.06v1.54h-4.06ZM81.49,21.48v-1.54h4.06v1.54h-4.06ZM83.09,24.68h.92v-.98h-.92v.98ZM86.11,13.91h3.2v-1.11h2.21v1.11h3.26v1.85h-3.26v.68h2.71v1.85h-7.57v-1.85h2.65v-.68h-3.2v-1.85ZM93.18,23.88v-.55l1.97.55c0,1.11-.06,1.8-.18,2.09-.12.7-.6,1.05-1.42,1.05h-1.97c-.37,0-.68-.1-.92-.31-.25-.21-.37-.47-.37-.8v-4.55h1.97v3.08c0,.25.12.37.37.37h.25c.2-.04.31-.35.31-.92Z"/>
    <path d="M101.86,18.4l1.29-2.58c-1.68.33-2.85.53-3.51.62l-.55-2.34c2.34-.16,4.29-.49,5.84-.98l1.29,1.48c-.98,1.85-1.68,3.2-2.09,4.06.78.12,1.66.39,2.64.8.25-.74.43-1.68.55-2.83l2.28.74c-.21,1.19-.45,2.21-.74,3.08.74.49,1.48,1.01,2.21,1.54l-1.54,2.03c-.37-.37-.88-.8-1.54-1.29-.82,1.52-1.91,2.87-3.26,4.06l-1.79-1.66c1.48-1.27,2.52-2.46,3.14-3.57-.95-.49-1.93-.78-2.95-.86-.58,1.11-1.03,1.93-1.35,2.46-.7,1.07-1.33,1.7-1.91,1.91-.94.37-1.78.18-2.52-.55-.49-.49-.7-1.15-.62-1.97.08-.86.39-1.58.92-2.15,1.11-1.19,2.5-1.85,4.18-1.97ZM100.87,20.74c-.49.04-.94.21-1.35.49-.45.33-.72.7-.8,1.11-.04.17,0,.33.12.49.12.17.29.21.49.12.41-.16.92-.9,1.54-2.21Z"/>
    <path d="M112.38,24.49h5.72v-11.57h2.09v4.37h5.35v2.03h-5.35v5.17h6.34v2.03h-14.15v-2.03Z"/>
    <path d="M129.66,13.42l2.09.43c-.66,2.71-.82,5.62-.49,8.74l.74-1.85,1.48.98c-.58,1.4-1.01,2.79-1.29,4.18l-2.09.37c-1.35-4.22-1.5-8.51-.43-12.86ZM133.17,16.74c2.09.08,3.49.1,4.18.06l-.06-3.51,2.09.12.06,3.2c.62-.04,1.33-.1,2.15-.18v2.03c-.74.12-1.46.18-2.15.18.21,3.45-.72,6.15-2.77,8.12l-1.6-1.54c.94-.9,1.58-1.91,1.91-3.01.29-.86.41-2.01.37-3.45-1.44.08-2.83.08-4.18,0v-2.03ZM139.63,14.46l.92-.74,1.23,1.48-.92.74-1.23-1.48ZM140.74,13.48l.92-.74,1.17,1.42-.92.74-1.17-1.42Z"/>
    <path d="M143.69,18.34c1.31-1.43,2.25-3.28,2.83-5.54l1.97.68-.06.25h3.38v-.86h2.15v.86h4v1.78h-9.84v-.98c-.04.29-.29.86-.74,1.72v10.95h-2.15v-7.2c-.12.37-.35.72-.68,1.05l-.86-2.71ZM152.98,27.2h-2.15l-.62-2.09h1.35c.45,0,.68-.18.68-.55v-.74h-2.89v-.92h-1.42v-2.95h10.03v2.95h-1.66v.92h-1.85v2.03c0,.9-.49,1.35-1.48,1.35ZM148.8,19.26v-3.2h8.24v3.2h-8.24ZM150.03,22.15h5.84v-.55h-5.84v.55ZM151.01,17.91h3.88v-.55h-3.88v.55Z"/>
    <path d="M159.56,26.64v-1.97h2.34v-9.17h2.21v9.17h2.21v-11.81h2.21v4.49h4.25v1.97h-4.25v5.35h5.29v1.97h-14.27Z"/>
  </g>
  <path class="cls-2" d="M39.07,25.28l5.28-5.28-5.28-5.36,1.55-1.55,5.43,5.36,5.36-5.36,1.55,1.55-5.28,5.36,5.28,5.28-1.63,1.63-5.28-5.28-5.36,5.28-1.63-1.63Z"/>
</svg>