<?xml version="1.0" encoding="UTF-8"?>
<svg id="_読み上げ開始" data-name="読み上げ開始" xmlns="http://www.w3.org/2000/svg" viewBox="0 0 200 40">
  <defs>
    <style>
      .cls-1 {
        fill: #fff;
      }

      .cls-2 {
        fill: blue;
      }
    </style>
  </defs>
  <g>
    <rect class="cls-1" x=".5" y=".5" width="199" height="39"/>
    <path d="M199,1v38H1V1h198M200,0H0v40h200V0h0Z"/>
  </g>
  <path d="M30.43,9.62c0-1.55,1.26-2.8,2.8-2.8s2.8,1.26,2.8,2.8v20.57c0,1.55-1.26,2.8-2.8,2.8s-2.8-1.26-2.8-2.8V9.62ZM28.56,10.97c-3.87,1.78-8.49,2.77-13.09,3.1v11.66c.68.04,1.36.09,2.03.16,3.84.38,7.55,1.25,11.05,2.92V10.97ZM13.6,25.64v-11.46c-1.27.05-2.62.08-3.75.1-2.06.03-3.72,1.7-3.72,3.76v3.74c0,2.07,1.68,3.73,3.73,3.76.31,0,.62,0,.93.01.94.02,1.88.05,2.82.09ZM16.2,27.66c.53.04,1.06.09,1.59.15l.47,3.16c.19,1.01-.47,1.99-1.49,2.19-.12.02-.23.03-.35.03h-1.02c-.74,0-1.42-.44-1.71-1.12l-2.46-4.64c1.06.03,2.11.07,3.16.12.61.03,1.22.07,1.81.11Z"/>
  <path class="cls-2" d="M43.19,24.91c1.14-1.31,1.83-3.02,1.83-4.89s-.69-3.58-1.83-4.89c-.07-.08-.18-.08-.26-.02l-1,.84c-.08.07-.09.19-.02.27.89,1.01,1.43,2.35,1.43,3.81s-.54,2.79-1.43,3.81c-.07.08-.06.2.02.27l1,.84c.08.07.19.06.26-.02h0ZM46.45,27.64c1.72-2.06,2.76-4.72,2.76-7.62s-1.04-5.56-2.76-7.62c-.07-.08-.18-.09-.26-.02l-1,.84c-.08.07-.09.18-.02.26,1.48,1.78,2.36,4.06,2.36,6.55s-.89,4.77-2.36,6.54c-.07.08-.06.2.02.26l1,.84c.08.07.2.06.26-.02ZM49.68,30.35c2.32-2.83,3.71-6.44,3.71-10.38s-1.37-7.51-3.66-10.33c-.06-.08-.18-.09-.26-.03,0,0,0,0,0,0l-1,.84c-.08.07-.09.18-.03.26,2.05,2.53,3.28,5.75,3.28,9.26s-1.25,6.77-3.32,9.31c-.07.08-.05.2.03.26l1,.84c.08.07.2.06.26-.03h0Z"/>
  <g>
    <path d="M80.88,17.29v-1.72h5.04v1.72h-5.04ZM88.01,22.34h-1.97v-3.63h8.67v3.63h-2.15v-1.78h-4.31v.8h1.66c.04,1.85-.16,3.14-.62,3.88-.16.29-.43.62-.8.98-.53.53-.96.88-1.29,1.05l-1.48-1.35v.37h-2.65v.68h-1.85v-4.86h4.49v3.45c.74-.29,1.31-.72,1.72-1.29.37-.49.55-1.13.55-1.91ZM81.49,15.02v-1.66h4.06v1.66h-4.06ZM81.49,19.38v-1.54h4.06v1.54h-4.06ZM81.49,21.48v-1.54h4.06v1.54h-4.06ZM83.09,24.68h.92v-.98h-.92v.98ZM86.11,13.91h3.2v-1.11h2.21v1.11h3.26v1.85h-3.26v.68h2.71v1.85h-7.57v-1.85h2.65v-.68h-3.2v-1.85ZM93.18,23.88v-.55l1.97.55c0,1.11-.06,1.8-.18,2.09-.12.7-.6,1.05-1.42,1.05h-1.97c-.37,0-.68-.1-.92-.31s-.37-.47-.37-.8v-4.55h1.97v3.08c0,.25.12.37.37.37h.25c.2-.04.31-.35.31-.92Z"/>
    <path d="M101.86,18.4l1.29-2.58c-1.68.33-2.85.53-3.51.62l-.55-2.34c2.34-.16,4.29-.49,5.84-.98l1.29,1.48c-.98,1.85-1.68,3.2-2.09,4.06.78.12,1.66.39,2.64.8.25-.74.43-1.68.55-2.83l2.28.74c-.21,1.19-.45,2.21-.74,3.08.74.49,1.48,1.01,2.21,1.54l-1.54,2.03c-.37-.37-.88-.8-1.54-1.29-.82,1.52-1.91,2.87-3.26,4.06l-1.79-1.66c1.48-1.27,2.52-2.46,3.14-3.57-.95-.49-1.93-.78-2.95-.86-.58,1.11-1.03,1.93-1.35,2.46-.7,1.07-1.33,1.7-1.91,1.91-.94.37-1.78.18-2.52-.55-.49-.49-.7-1.15-.62-1.97.08-.86.39-1.58.92-2.15,1.11-1.19,2.5-1.85,4.18-1.97ZM100.87,20.74c-.49.04-.94.21-1.35.49-.45.33-.72.7-.8,1.11-.04.16,0,.33.12.49s.29.21.49.12c.41-.16.92-.9,1.54-2.22Z"/>
    <path d="M112.38,24.49h5.72v-11.57h2.09v4.37h5.35v2.03h-5.35v5.17h6.34v2.03h-14.15v-2.03Z"/>
    <path d="M129.66,13.42l2.09.43c-.66,2.71-.82,5.62-.49,8.74l.74-1.85,1.48.98c-.58,1.39-1.01,2.79-1.29,4.18l-2.09.37c-1.35-4.22-1.5-8.51-.43-12.86ZM133.17,16.74c2.09.08,3.49.1,4.18.06l-.06-3.51,2.09.12.06,3.2c.62-.04,1.33-.1,2.15-.18v2.03c-.74.12-1.46.18-2.15.18.21,3.45-.72,6.15-2.77,8.12l-1.6-1.54c.94-.9,1.58-1.91,1.91-3.01.29-.86.41-2.01.37-3.45-1.44.08-2.83.08-4.18,0v-2.03ZM139.63,14.46l.92-.74,1.23,1.48-.92.74-1.23-1.48ZM140.74,13.48l.92-.74,1.17,1.42-.92.74-1.17-1.42Z"/>
    <path d="M144.31,27.2v-14.03h6.4v5.35h-4.18v8.67h-2.21ZM146.52,15.26h2.15v-.49h-2.15v.49ZM146.52,16.99h2.15v-.55h-2.15v.55ZM148.37,23.63h-1.48v-1.78h1.66v-1.05h-1.35v-1.78h7.69v1.78h-1.35v1.05h1.6v1.78h-1.6v3.2h-2.03v-3.2h-.92c-.12.7-.31,1.29-.55,1.79-.37.65-.96,1.25-1.78,1.78l-1.48-1.72c1.02-.62,1.56-1.23,1.6-1.85ZM150.71,21.85h.8v-1.05h-.8v1.05ZM154.64,27.14l-.74-2.03h1.17c.29,0,.43-.27.43-.8v-5.78h-4.12v-5.35h6.34v11.94c0,.66-.08,1.13-.25,1.42-.21.41-.58.62-1.11.62h-1.72ZM153.35,15.26h2.15v-.49h-2.15v.49ZM153.35,16.99h2.15v-.55h-2.15v.55Z"/>
    <path d="M170.21,15.51l1.78-.92c.66,1.11,1.35,2.48,2.09,4.12l-1.85.92-.31-.74-6.28.55c-.04.45-.16,1.05-.37,1.78-.21.7-.41,1.21-.62,1.54l1.05.92-1.11,1.78-.92-.86c-.62,1.11-1.42,1.99-2.4,2.65l-1.54-1.85c1.07-.62,1.82-1.35,2.28-2.21l-.62-.55-.31.55-1.78-1.11c.45-.74.86-1.56,1.23-2.46.33-.82.55-1.56.68-2.21h-1.54v-1.91h1.91c.16-.78.27-1.66.31-2.65l2.03.18c0,.21-.04.6-.12,1.17-.08.7-.14,1.13-.18,1.29h2.34l-.12,1.91h.8c.37-.94.84-2.48,1.42-4.61l2.15.25c-.45,1.6-.92,2.99-1.42,4.18l2.21-.25c-.08-.33-.35-.82-.8-1.48ZM163.87,17.42h-.62c-.25,1.27-.59,2.38-1.05,3.32l.86.62c.21-.33.39-.92.55-1.78.16-.86.25-1.58.25-2.15ZM166.21,20.12h6.83v7.01h-2.15v-.55h-2.46v.55h-2.21v-7.01ZM168.42,24.61h2.46v-2.52h-2.46v2.52Z"/>
  </g>
</svg>