<?xml version="1.0" encoding="UTF-8"?>
<svg id="_レイヤー_1" data-name="レイヤー 1" xmlns="http://www.w3.org/2000/svg" viewBox="0 0 130 130">
  <defs>
    <style>
      .cls-1, .cls-2 {
        fill: #000;
        stroke-width: 0px;
      }

      .cls-2 {
        fill-rule: evenodd;
      }

      .cls-3 {
        fill: none;
        stroke: #000;
        stroke-linecap: round;
        stroke-linejoin: round;
        stroke-width: 2px;
      }
    </style>
  </defs>
  <path class="cls-3" d="M1,33V1h32M129,33V1h-32M33,129H1v-32M97,129h32v-32"/>
  <path class="cls-2" d="M65,17c-16.51,0-29.89,13.38-29.89,29.89s13.38,29.89,29.89,29.89,29.89-13.38,29.89-29.89-13.38-29.89-29.89-29.89ZM56.3,52.33c-.78,0-1.52-.4-1.92-1.08-.38-.66-.34-1.48.11-2.09l8.7-12.23c.42-.58,1.09-.91,1.81-.91.73,0,1.4.34,1.81.91l8.7,12.23c.44.62.49,1.43.11,2.09-.4.68-1.13,1.09-1.92,1.08h-17.39Z"/>
  <g>
    <path class="cls-1" d="M25.06,95.06c-.26.35-.79.42-1.13.12l-6-4.84c-.08-.08-.23-.03-.27.05l-1.84,2.83c-.27.38-.76.5-1.13.23-.38-.26-.45-.76-.23-1.13.53-.76,1.44-2.15,2.34-3.58.3-.5.94-.6,1.39-.27l6.77,5.49c.33.26.41.79.11,1.12ZM21.13,89.36c0-.83.68-1.51,1.51-1.51s1.51.68,1.51,1.51-.68,1.51-1.51,1.51-1.51-.68-1.51-1.51ZM22.03,89.36c0,.35.3.6.6.6.35,0,.6-.26.6-.6s-.26-.6-.6-.6c-.3,0-.6.27-.6.6Z"/>
    <path class="cls-1" d="M40.03,91.9c0,.45-.38.83-.83.83h-8.92c-.45,0-.83-.38-.83-.83,0-.5.38-.83.83-.83h8.92c.45,0,.83.33.83.83Z"/>
    <path class="cls-1" d="M54.45,92.96c-.95,1.17-3.4,3.46-8.51,3.89-.45.03-.83-.35-.83-.76-.03-.45.3-.83.76-.88,4.28-.36,6.35-2.15,7.18-3.08.3-.35.8-.53,1.21-.23.35.26.45.71.2,1.06ZM45.23,91.03c0-.45.38-.83.83-.83h.98c.45,0,.79.38.79.83s-.33.8-.79.8h-.98c-.45,0-.83-.35-.83-.8ZM45.76,87.75c0-.42.33-.8.79-.8h1.13c.45,0,.8.38.8.8,0,.45-.35.83-.8.83h-1.13c-.45,0-.79-.38-.79-.83ZM52.82,88.91c-.08-.33.15-.71.5-.79.33-.08.68.15.76.48l.11.45c.08.35-.11.68-.45.76-.33.08-.71-.11-.79-.48l-.12-.42ZM55.74,89.86c-.35.15-.73,0-.83-.35l-.2-.41c-.15-.35,0-.73.35-.83.3-.15.68,0,.83.3l.18.45c.12.3-.03.68-.33.83Z"/>
    <path class="cls-1" d="M69.23,92.84c-.08.42-.48.73-.91.65-1.69-.3-3.28-.65-4.34-.88v4.11c0,.42-.35.8-.8.8s-.83-.38-.83-.8v-9.71c0-.45.38-.83.83-.83s.8.38.8.83v3.93c.98.2,2.75.6,4.61.95.45.08.71.48.63.94Z"/>
    <path class="cls-1" d="M76.19,90.62c.08.38-.15.79-.56.91-.42.08-.83-.2-.91-.57l-.08-.33c-.12-.42.15-.83.56-.91.42-.12.8.15.91.56l.08.35ZM77.22,91.55l-.15-1.06c-.08-.41.18-.79.6-.86.41-.08.79.23.86.63l.2,1.06c.03.42-.23.83-.65.88-.41.08-.79-.23-.86-.65ZM82.39,91.93c-.26,1.1-1.09,3.25-3.48,5.37-.3.26-.79.23-1.06-.12-.26-.3-.18-.79.12-1.06,1.92-1.72,2.65-3.46,2.9-4.37.12-.42.53-.68.95-.65.41.04.68.42.56.83Z"/>
    <path class="cls-1" d="M101.76,86.84c0,.83-.68,1.51-1.51,1.51-.26,0-.53-.08-.76-.2.04.12.08.27.04.42-.15.94-1.25,5.75-7.15,8.12-.41.18-.86-.04-1.01-.45-.15-.42.08-.91.48-1.06,3.86-1.59,5.29-4.34,5.82-5.85,0-.12-.08-.23-.15-.23h-5.9c-.45,0-.83-.35-.83-.8s.38-.83.83-.83h7c.08,0,.18.05.26.05-.08-.2-.15-.42-.15-.68,0-.83.68-1.51,1.51-1.51s1.51.68,1.51,1.51ZM100.85,86.84c0-.35-.26-.6-.6-.6s-.6.26-.6.6.27.6.6.6.6-.27.6-.6Z"/>
    <path class="cls-1" d="M115.83,95.14c-.18.38-.68.53-1.06.35-2.98-1.54-5.44-3.48-6.68-4.54-.08-.08-.2-.03-.27.04l-1.54,2.38c-.27.35-.76.45-1.13.23-.38-.26-.5-.76-.23-1.13l2.12-3.25c.3-.45.94-.53,1.36-.15.48.42,3.4,3.02,7.11,4.96.38.23.56.71.33,1.12Z"/>
    <path class="cls-1" d="M54.49,109.07v4.01c0,.41-.33.74-.76.74s-.76-.33-.76-.74v-1.59c-.23.3-.48.6-.76.91-.26.33-.76.33-1.06.08-.33-.27-.33-.76-.08-1.06.83-1.03,1.48-1.78,1.78-2.24,0-.03.03-.08.03-.11h-.83c-.41,0-.76-.35-.76-.76s.35-.76.76-.76h.91v-1.21h-.15c-.41.11-.83-.2-.91-.58-.03-.41.23-.83.65-.91.79-.15,1.44-.38,1.85-.53.42-.15.83.05,1.06.42.2.38,0,.79-.38.94-.18.08-.38.15-.6.23v1.63h.83c.42,0,.76.33.76.76s-.33.76-.76.76h-.83ZM56.53,111c.2.38,0,.83-.38.98-.41.15-.83-.03-1.01-.41l-.27-.65c-.15-.38.05-.83.42-.98.38-.15.83.04.98.42l.26.64ZM63.75,112.13c-.6,1.51-2.16,4.11-6.12,4.61-.42.08-.8-.2-.91-.58-.12-.38.11-.71.48-.76.76-.11,1.48-.38,2.09-.68l-.3-.18c-.35-.23-.45-.68-.23-.98.23-.35.63-.45.98-.23l.79.48.04.05c.48-.38.86-.79,1.13-1.17.03-.08,0-.15-.12-.15h-1.97c-.41.23-.86.41-1.32.64-.38.11-.8-.08-.91-.41-.12-.38.08-.8.41-.95,1.51-.63,2.72-1.59,3.4-2.15.3-.27.76-.27,1.03.03.3.27.26.73-.04.98-.11.12-.26.27-.45.42h1.29c.53,0,.91.53.73,1.01ZM56.95,107.64c-.23-.35-.2-.8.08-1.06,1.01-.91,1.74-2.01,2.15-2.65.23-.35.65-.5,1.03-.3.33.18.45.6.26.94h1.71c.56,0,.94.53.79,1.06-.41,1.36-1.47,3.7-4.23,5.14-.33.2-.79.08-1.01-.26-.23-.27-.15-.68.18-.88.6-.33,1.13-.79,1.59-1.24-.11-.04-.23-.08-.33-.15-.3-.23-.38-.65-.15-.91l.08-.12c.23-.3.63-.33.91-.11.15.08.26.23.26.41.38-.48.65-.94.88-1.32.03-.08-.04-.2-.15-.2h-1.48c-.41.57-.94,1.13-1.54,1.71-.27.26-.76.23-.98-.08Z"/>
    <path class="cls-1" d="M72.68,109.1v2.62c0,.56-.45,1.06-1.06,1.06h-1.59v.48h.79c.35,0,.6.26.6.61s-.26.6-.6.6h-.79v.68c.3-.05.63-.05.91-.08.38-.04.71.23.76.61.03.38-.27.71-.61.76-1.06.08-2.54.18-3.4.23-.38.03-.73-.27-.73-.65-.03-.38.27-.68.65-.71.26,0,.56-.05.91-.05v-.79h-.53c-.35,0-.6-.27-.6-.6,0-.35.26-.61.6-.61h.53v-.48h-1.18c-.56,0-1.06-.5-1.06-1.06v-2.62c0-.56.5-1.06,1.06-1.06h1.18v-.71h-1.89c-.38,0-.68-.3-.68-.68s.3-.68.68-.68h1.89v-.61c-.23.03-.5.08-.76.11-.42.04-.8-.26-.83-.68-.04-.41.26-.79.68-.83,1.47-.18,2.53-.33,3.21-.41.42-.08.8.23.88.64.08.38-.23.8-.65.83-.26.05-.6.12-1.01.15v.8h2.49c.38,0,.68.3.68.68s-.3.68-.68.68h-2.49v.71h1.59c.61,0,1.06.5,1.06,1.06ZM67.57,109.56v.53h.95v-.76h-.73c-.11,0-.23.12-.23.23ZM68.52,111.49v-.65h-.83s-.08-.03-.12-.03v.45c0,.11.12.23.23.23h.73ZM71.4,109.56c0-.11-.08-.23-.23-.23h-1.13v.76h.23c.23,0,.38.15.38.38,0,.2-.15.38-.38.38h-.23v.65h1.13c.15,0,.23-.12.23-.23v-1.71ZM78.31,113.67c-.11.42-.56.61-.94.42-.38-.2-.6-.65-.45-1.06.56-2.04.68-3.78.71-4.79,0-.12-.11-.23-.23-.23h-.86c-.3,1.89-.95,4.31-2.16,6.46-.18.38-.68.48-1.01.26-.35-.23-.5-.68-.27-1.06,1.03-1.88,1.63-3.96,1.94-5.66h-.38c-.42,0-.76-.35-.76-.76s.33-.76.76-.76h.6c.08-.45.11-.88.11-1.18.04-.41.38-.76.8-.76s.76.35.71.76c0,.35-.03.73-.11,1.18h1.24c.6,0,1.1.48,1.13,1.09.04,1.29-.03,3.63-.83,6.08Z"/>
  </g>
</svg>